<?xml version="1.0" standalone="no"?>
<!DOCTYPE svg PUBLIC "-//W3C//DTD SVG 20010904//EN"
 "http://www.w3.org/TR/2001/REC-SVG-20010904/DTD/svg10.dtd">
<svg version="1.0" xmlns="http://www.w3.org/2000/svg"
 width="1089.000000pt" height="449.000000pt" viewBox="0 0 1089.000000 449.000000"
 preserveAspectRatio="xMidYMid meet">

<g transform="translate(0.000000,449.000000) scale(0.100000,-0.100000)"
fill="#000000" stroke="none">
<path d="M1536 3971 c-4 -5 1 -35 9 -67 8 -32 15 -75 15 -95 0 -38 18 -63 37
-51 8 5 8 20 2 52 -6 25 -14 68 -19 97 -4 28 -11 57 -15 62 -8 13 -22 14 -29
2z m31 -93 c-3 -8 -6 -5 -6 6 -1 11 2 17 5 13 3 -3 4 -12 1 -19z"/>
<path d="M1955 3970 c-3 -5 -3 -14 0 -20 3 -5 1 -10 -5 -10 -8 0 -10 -9 -6
-24 3 -13 2 -26 -4 -28 -13 -4 -18 -126 -5 -130 11 -3 33 73 40 142 3 25 8 53
11 63 6 18 -20 25 -31 7z"/>
<path d="M1150 3825 c0 -28 30 -64 48 -58 14 4 14 3 3 -5 -11 -8 -8 -20 18
-66 36 -62 49 -74 56 -53 7 17 -95 197 -112 197 -7 0 -13 -7 -13 -15z m34 -21
c5 -14 4 -15 -9 -4 -17 14 -19 20 -6 20 5 0 12 -7 15 -16z"/>
<path d="M2331 3811 c-12 -16 -21 -32 -21 -36 0 -3 -16 -31 -36 -62 -32 -50
-38 -83 -16 -83 8 0 108 166 114 190 6 25 -20 20 -41 -9z m22 -6 c-3 -9 -8
-14 -10 -11 -3 3 -2 9 2 15 9 16 15 13 8 -4z"/>
<path d="M4029 3790 c-187 -17 -407 -101 -557 -212 -39 -29 -71 -56 -69 -60 1
-4 62 -63 136 -131 l134 -125 61 42 c71 48 193 99 284 117 40 7 103 10 175 6
182 -9 324 -69 459 -196 103 -96 178 -221 214 -356 16 -57 18 -105 6 -105 -13
0 -138 44 -467 164 -159 58 -292 103 -295 98 -4 -4 -12 -56 -19 -117 -18 -163
-22 -185 -37 -185 -10 0 -526 199 -623 241 -13 5 -25 8 -26 7 -3 -3 151 -88
484 -269 36 -19 126 -68 199 -108 74 -40 137 -69 140 -66 4 4 12 69 18 145 5
77 13 142 16 146 6 5 254 -96 773 -316 225 -95 200 -94 214 -5 39 265 -26 564
-170 781 -232 349 -632 541 -1050 504z"/>
<path d="M1618 3610 c-168 -30 -387 -153 -475 -266 -16 -19 -38 -47 -51 -62
-13 -15 -43 -67 -68 -117 -133 -269 -116 -570 47 -825 56 -89 255 -290 286
-290 35 0 66 33 66 69 0 28 -15 48 -105 139 -151 153 -208 251 -238 416 -17
89 -8 242 18 322 87 267 299 445 574 484 173 24 375 -28 507 -131 50 -40 111
-13 111 49 0 23 -9 38 -37 61 -51 42 -184 107 -268 132 -79 23 -287 34 -367
19z"/>
<path d="M834 3568 c-7 -11 4 -22 105 -108 55 -46 72 -53 78 -34 5 15 -113
117 -126 110 -5 -4 -13 -1 -17 5 -5 8 -3 9 7 4 8 -5 5 1 -5 13 -22 25 -32 27
-42 10z"/>
<path d="M2650 3560 c-57 -44 -70 -55 -70 -63 0 -5 6 -5 13 -1 7 4 8 3 4 -2
-5 -5 -16 -9 -25 -9 -9 0 -16 -5 -15 -12 2 -7 -3 -10 -10 -7 -20 7 -53 -34
-39 -48 12 -12 36 4 132 91 37 33 52 53 45 59 -7 7 -18 4 -35 -8z m0 -24 c0
-2 -7 -7 -16 -10 -8 -3 -12 -2 -9 4 6 10 25 14 25 6z m-115 -96 c-3 -5 -12
-10 -18 -10 -7 0 -6 4 3 10 19 12 23 12 15 0z"/>
<path d="M1971 3334 c-33 -42 -26 -66 35 -130 59 -61 114 -131 114 -145 0 -4
-14 -12 -32 -18 -31 -11 -32 -10 -105 68 -115 124 -166 145 -215 89 -35 -40
-24 -68 58 -148 42 -40 87 -89 101 -107 24 -31 25 -36 13 -78 -7 -25 -16 -48
-20 -50 -5 -3 -19 14 -33 37 -36 60 -121 146 -152 154 -37 9 -79 -23 -83 -63
-3 -26 6 -41 53 -89 78 -83 115 -160 115 -240 0 -121 -40 -187 -170 -281 -172
-125 -230 -254 -230 -510 l0 -133 339 0 339 0 6 78 c15 164 48 234 176 367
109 114 160 184 216 295 64 128 87 228 87 375 -1 143 -21 232 -83 359 -65 132
-133 185 -197 154 -45 -21 -43 -64 11 -172 58 -118 86 -221 85 -311 -1 -66 -2
-68 -11 -30 -28 121 -44 167 -79 239 -48 96 -94 161 -178 249 -57 59 -68 67
-102 67 -29 0 -42 -6 -58 -26z m233 -448 c20 -48 39 -214 28 -251 -8 -28 -9
-27 -15 21 -3 29 -18 87 -32 130 -22 65 -24 82 -14 106 6 15 13 28 15 28 2 0
10 -15 18 -34z"/>
<path d="M627 3213 c-9 -8 4 -33 17 -33 6 0 46 -14 89 -30 43 -17 83 -28 89
-24 7 4 8 3 4 -4 -4 -7 -3 -12 2 -12 6 0 12 7 16 15 6 17 -3 22 -100 59 -78
29 -110 37 -117 29z m100 -39 c-3 -3 -12 -4 -19 -1 -8 3 -5 6 6 6 11 1 17 -2
13 -5z"/>
<path d="M2850 3208 c-34 -8 -67 -21 -102 -39 -10 -5 -24 -9 -32 -9 -20 0 -41
-29 -30 -40 11 -11 201 59 208 77 7 18 -5 21 -44 11z m-95 -58 c-3 -5 -14 -10
-23 -9 -14 0 -13 2 3 9 27 11 27 11 20 0z"/>
<path d="M637 2812 c-77 -2 -88 -5 -85 -20 3 -14 18 -17 107 -20 68 -2 108 1
117 9 19 15 1 37 -29 35 -12 0 -62 -2 -110 -4z"/>
<path d="M2763 2810 c-2 -3 -9 -6 -14 -6 -5 -1 -12 -2 -15 -3 -4 0 -1 -8 6
-16 10 -12 36 -15 116 -15 99 0 129 9 107 31 -10 10 -191 18 -200 9z"/>
<path d="M3660 2746 c0 -5 776 -576 783 -576 3 0 8 48 12 107 4 59 10 126 14
149 l6 43 150 -74 c83 -42 151 -80 153 -85 5 -15 -52 -90 -115 -152 -78 -75
-165 -130 -271 -168 -72 -27 -106 -33 -199 -37 -180 -9 -314 27 -464 123 l-27
17 -146 -133 c-80 -74 -146 -137 -146 -140 0 -20 114 -97 226 -153 180 -91
338 -123 555 -114 354 13 663 184 873 482 51 72 131 236 142 290 6 31 5 31
-83 67 -175 73 -619 259 -648 272 -50 23 -139 56 -142 52 -2 -2 -8 -70 -14
-152 -6 -82 -12 -150 -14 -152 -2 -2 -48 20 -102 49 -221 117 -402 214 -470
251 -40 22 -73 37 -73 34z"/>
<path d="M770 2450 c-25 -10 -66 -26 -92 -36 -27 -9 -48 -23 -48 -30 0 -19 15
-18 91 7 35 11 71 23 79 25 13 5 13 6 0 15 -11 8 -10 9 7 4 28 -8 44 1 36 20
-7 19 -17 18 -73 -5z"/>
<path d="M2680 2456 c0 -21 18 -31 105 -60 93 -30 108 -32 103 -10 -2 11 -36
28 -98 50 -110 38 -110 39 -110 20z m35 -6 c3 -5 2 -10 -4 -10 -5 0 -13 5 -16
10 -3 6 -2 10 4 10 5 0 13 -4 16 -10z"/>
<path d="M950 2133 c-86 -74 -124 -112 -118 -118 3 -4 17 -1 30 6 40 21 158
123 155 133 -7 21 -25 15 -67 -21z m50 12 c-7 -8 -17 -15 -23 -15 -6 0 -2 7 9
15 25 19 30 19 14 0z"/>
<path d="M2507 2163 c-13 -12 -7 -21 48 -62 30 -23 64 -51 75 -64 18 -19 60
-33 60 -20 0 13 -22 41 -35 47 -9 3 -13 2 -10 -4 3 -6 4 -10 0 -10 -3 0 -9 9
-13 19 -7 18 -100 101 -113 101 -3 0 -9 -3 -12 -7z"/>
<path d="M1201 1859 c-32 -55 -50 -97 -46 -106 8 -23 22 -7 78 89 29 50 41 79
34 82 -8 3 -8 5 1 5 13 1 7 21 -7 21 -4 0 -31 -41 -60 -91z m-11 -73 c0 -2 -7
-9 -15 -16 -13 -11 -14 -10 -9 4 5 14 24 23 24 12z"/>
<path d="M2245 1940 c-6 -10 64 -140 77 -140 4 0 5 -6 2 -13 -7 -19 28 -48 46
-37 12 8 12 11 -2 27 -8 10 -17 23 -19 28 -12 31 -82 145 -89 145 -5 0 -12 -4
-15 -10z"/>
<path d="M1407 1622 c-21 -23 -22 -52 -3 -78 14 -18 31 -19 343 -22 366 -2
376 -1 381 56 6 63 14 62 -363 62 -319 0 -343 -1 -358 -18z"/>
<path d="M1430 1483 c-39 -14 -53 -69 -24 -97 13 -14 60 -16 358 -16 253 0
345 3 354 12 7 7 12 27 12 44 0 63 -7 64 -365 63 -176 0 -327 -3 -335 -6z"/>
<path d="M1567 1312 c-23 -25 -21 -58 3 -82 18 -18 33 -20 188 -20 187 0 212
7 212 59 0 56 -19 61 -212 61 -157 0 -177 -2 -191 -18z"/>
<path d="M0 1145 l0 -25 5445 0 5445 0 0 25 0 25 -5445 0 -5445 0 0 -25z"/>
</g>
</svg>
